<svg xmlns="http://www.w3.org/2000/svg" width="64" height="64" viewBox="0 0 64 64" role="img" aria-label="Set Standing Order"><title>Set Standing Order</title>
<g fill="none" stroke-linecap="round" stroke-linejoin="round"><rect x="17" y="13" width="30" height="38" rx="4" fill="#303b4b" stroke="#07111d" stroke-width="4.4"/>
<line x1="24" y1="24" x2="39" y2="24" stroke="#8a97a8" stroke-width="2.4"/>
<line x1="24" y1="32" x2="36" y2="32" stroke="#8a97a8" stroke-width="2.4"/>
<line x1="24" y1="40" x2="34" y2="40" stroke="#8a97a8" stroke-width="2.4"/>
<circle cx="21" cy="24" r="1.8" fill="#4fc3ff"/>
<circle cx="21" cy="32" r="1.8" fill="#ffd24a"/>
<circle cx="21" cy="40" r="1.8" fill="#7fdc8a"/>
<path d="M47 24 C55 29 55 40 48 45 C43 49 35 48 31 43" stroke="#07111d" stroke-width="7"/>
<path d="M47 24 C55 29 55 40 48 45 C43 49 35 48 31 43" stroke="#c99bff" stroke-width="3.5"/>
<polygon points="29,36 30,48 40,42" fill="#c99bff" stroke="#07111d" stroke-width="2.2"/></g></svg>
